<svg width="1200" height="360" viewBox="0 0 1200 360" fill="none" xmlns="http://www.w3.org/2000/svg" role="img" aria-label="Alfredo Ctrl banner">
  <rect width="1200" height="360" rx="34" fill="#0f172a"/>
  <path d="M0 310 C180 220 310 395 510 286 C706 180 872 336 1200 170" stroke="#f8fafc" stroke-width="2" opacity=".28"/>
  <path d="M0 58 H1200 M120 0 V360 M280 0 V360 M440 0 V360 M600 0 V360 M760 0 V360 M920 0 V360 M1080 0 V360" stroke="#38bdf8" opacity=".08"/>
  
    <text x="70" y="128" fill="#38bdf8" font-size="22" font-weight="800" letter-spacing="4">ALFREDO-CTRL</text>
    <text x="70" y="192" fill="#38bdf8" font-size="58" font-weight="900">Alfredo Ctrl</text>
    <foreignObject x="70" y="218" width="610" height="88">
      <div xmlns="http://www.w3.org/1999/xhtml" style="color:#38bdf8;font:700 24px Segoe UI, Arial, sans-serif;line-height:1.25">AI student, web builder, and daily project shipper.</div>
    </foreignObject>
  <circle cx="780" cy="100" r="10" fill="#f8fafc"/><circle cx="875" cy="165" r="14" fill="#a3e635"/><circle cx="985" cy="105" r="9" fill="#f8fafc"/><circle cx="1040" cy="250" r="13" fill="#a3e635"/><path d="M780 100 L875 165 L985 105 L1040 250 L875 165" fill="none" stroke="#f8fafc" stroke-width="4" opacity=".55"/><rect x="735" y="70" width="350" height="225" rx="30" fill="none" stroke="#38bdf8" opacity=".28"/>
  <text x="70" y="315" fill="#38bdf8" font-size="18" font-weight="800" opacity=".72">Portfolio README identity 01</text>
</svg>
